HIERARCHY
ROOT Hips
{
 OFFSET 0.000000 0.000000 0.000000
 CHANNELS 6 Xposition Yposition Zposition Yrotation Xrotation Zrotation
 JOINT Chest
 {
  OFFSET 0.000000 9.585900 0.002600
  CHANNELS 3 Yrotation Xrotation Zrotation
  JOINT Chest2
  {
   OFFSET 0.000000 9.601200 -0.005300
   CHANNELS 3 Yrotation Xrotation Zrotation
   JOINT Chest3
   {
    OFFSET 0.000000 9.561800 0.000000
    CHANNELS 3 Yrotation Xrotation Zrotation
    JOINT Chest4
    {
     OFFSET 0.000000 9.552100 0.000000
     CHANNELS 3 Yrotation Xrotation Zrotation
     JOINT Neck
     {
      OFFSET 0.000000 14.453000 0.000000
      CHANNELS 3 Yrotation Xrotation Zrotation
      JOINT Head
      {
       OFFSET 0.000000 8.936500 -0.011300
       CHANNELS 3 Yrotation Xrotation Zrotation
       End Site
       {
        OFFSET 0.000000 17.073600 -0.006000
       }
      }
     }
     JOINT RightCollar
     {
      OFFSET -2.921100 9.558500 0.000000
      CHANNELS 3 Yrotation Xrotation Zrotation
      JOINT RightShoulder
      {
       OFFSET -13.519700 0.000000 0.000000
       CHANNELS 3 Yrotation Xrotation Zrotation
       JOINT RightElbow
       {
        OFFSET 0.000000 -29.696600 0.000000
        CHANNELS 3 Yrotation Xrotation Zrotation
        JOINT RightWrist
        {
         OFFSET 0.000000 -24.004700 0.000000
         CHANNELS 3 Yrotation Xrotation Zrotation
         End Site
         {
          OFFSET 0.000000 -17.728500 0.000000
         }
        }
       }
      }
     }
     JOINT LeftCollar
     {
      OFFSET 2.921100 9.558500 0.000000
      CHANNELS 3 Yrotation Xrotation Zrotation
      JOINT LeftShoulder
      {
       OFFSET 13.519700 0.000000 0.000000
       CHANNELS 3 Yrotation Xrotation Zrotation
       JOINT LeftElbow
       {
        OFFSET 0.000000 -29.696600 0.000000
        CHANNELS 3 Yrotation Xrotation Zrotation
        JOINT LeftWrist
        {
         OFFSET 0.000000 -24.004700 0.000000
         CHANNELS 3 Yrotation Xrotation Zrotation
         End Site
         {
          OFFSET 0.000000 -17.728500 0.000000
         }
        }
       }
      }
     }
    }
   }
  }
 }
 JOINT RightHip
 {
  OFFSET -7.771700 -0.012900 -0.001300
  CHANNELS 3 Yrotation Xrotation Zrotation
  JOINT RightKnee
  {
   OFFSET 0.000000 -40.869800 0.001200
   CHANNELS 3 Yrotation Xrotation Zrotation
   JOINT RightAnkle
   {
    OFFSET 0.000000 -39.717900 0.002100
    CHANNELS 3 Yrotation Xrotation Zrotation
    JOINT RightToe
    {
     OFFSET 0.000000 -4.965400 11.033500
     CHANNELS 3 Yrotation Xrotation Zrotation
     End Site
     {
      OFFSET 0.000000 -1.423100 5.872300
     }
    }
   }
  }
 }
 JOINT LeftHip
 {
  OFFSET 7.771700 -0.012900 -0.001300
  CHANNELS 3 Yrotation Xrotation Zrotation
  JOINT LeftKnee
  {
   OFFSET 0.000000 -40.869800 0.001200
   CHANNELS 3 Yrotation Xrotation Zrotation
   JOINT LeftAnkle
   {
    OFFSET 0.000000 -39.717900 0.002100
    CHANNELS 3 Yrotation Xrotation Zrotation
    JOINT LeftToe
    {
     OFFSET 0.000000 -4.965400 11.033500
     CHANNELS 3 Yrotation Xrotation Zrotation
     End Site
     {
      OFFSET 0.000000 -1.423100 5.872300
     }
    }
   }
  }
 }
}
MOTION
Frames: 11
Frame Time: 0.008333
-15.138863 58.069491 13.714838 171.344134 -50.458485 -3.434444 4.870043 22.410472 3.874426 2.527830 12.845947 1.946711 3.258719 16.043399 2.542272 2.565141 12.858337 1.945199 0.950274 17.078357 2.018483 1.098915 -4.066934 3.388699 6.034581 3.737945 0.988874 2.641693 -18.763918 -13.741718 -93.194743 -50.270284 146.830083 7.601165 -4.195470 -28.342316 -9.706342 0.036400 -2.143439 -3.214755 -14.647383 15.388981 84.643927 -47.919102 -137.948723 -4.425329 -13.128799 16.905261 4.190633 -21.691652 2.119483 -33.948420 72.800825 -37.538561 5.711769 -12.906826 10.866953 -0.002275 -0.017547 -0.002604 -0.963226 -18.602190 11.648281 87.385937 83.842840 87.114915 -0.301671 -22.595181 -15.774585 0.006074 0.017264 0.000033
-15.137620 58.067867 13.714548 171.340446 -50.455144 -3.435654 4.865871 22.406423 3.874450 2.526017 12.844501 1.946036 3.245851 16.037504 2.541278 2.551673 12.856416 1.942299 0.945924 17.072286 2.015065 1.115815 -4.056466 3.376260 6.054146 3.734251 0.974419 2.604056 -18.754933 -13.729668 -93.177448 -50.319646 146.773653 7.581159 -4.190855 -28.283043 -9.697830 0.026916 -2.134467 -3.180145 -14.620176 15.381530 84.619647 -47.972591 -137.929469 -4.399746 -13.179166 16.872091 4.190520 -21.696427 2.123146 -33.949168 72.801853 -37.538191 5.715069 -12.910160 10.866775 -0.002595 -0.016493 -0.003842 -0.968347 -18.605227 11.658041 87.392755 83.852524 87.120110 -0.302624 -22.601227 -15.774198 0.010308 0.019482 -0.000327
-15.136351 58.066559 13.714176 171.340863 -50.453235 -3.441314 4.852081 22.400639 3.874911 2.532120 12.846560 1.944212 3.244311 16.035751 2.541140 2.533843 12.849505 1.943223 0.945529 17.068200 2.010498 1.122472 -4.048868 3.367629 6.073788 3.741954 0.964677 2.587535 -18.752677 -13.724755 -93.175627 -50.344515 146.747954 7.565892 -4.191050 -28.249612 -9.685489 0.026751 -2.135310 -3.159487 -14.600347 15.385548 84.626560 -47.966914 -137.942512 -4.394111 -13.170388 16.836645 4.187742 -21.699395 2.128159 -33.961946 72.802024 -37.548517 5.728134 -12.919524 10.864164 -0.008139 -0.012373 -0.004428 -0.971941 -18.608461 11.666378 87.444389 83.859445 87.176165 -0.300050 -22.608212 -15.776851 0.012180 0.019240 -0.000609
-15.136303 58.064711 13.714182 171.346616 -50.445912 -3.446631 4.839161 22.393234 3.873970 2.517136 12.838125 1.946119 3.256777 16.041774 2.533306 2.522563 12.841916 1.945712 0.937671 17.062100 2.006533 1.110896 -4.051130 3.358132 6.067809 3.732175 0.945791 2.582679 -18.733130 -13.709309 -93.173428 -50.372174 146.722278 7.548171 -4.192281 -28.214186 -9.682714 0.025589 -2.135406 -3.137970 -14.577579 15.389461 84.615322 -47.981910 -137.932016 -4.379530 -13.181231 16.790035 4.183205 -21.707206 2.129606 -33.948504 72.805198 -37.540358 5.725577 -12.922197 10.868292 -0.004464 -0.012611 -0.003890 -0.977046 -18.616945 11.669546 87.516931 83.865528 87.248434 -0.296271 -22.616913 -15.775735 0.012127 0.019401 -0.000345
-15.135992 58.063417 13.713979 171.343938 -50.441693 -3.450166 4.832224 22.387452 3.876739 2.515315 12.836038 1.946607 3.246914 16.037780 2.536214 2.498158 12.820671 1.955552 0.945700 17.072259 1.978235 1.101346 -4.057585 3.344373 6.085590 3.744981 0.910704 2.557895 -18.714384 -13.698120 -93.151984 -50.378360 146.716805 7.559884 -4.144337 -28.199783 -9.685017 0.008893 -2.135472 -3.079972 -14.525711 15.364480 84.595166 -47.987942 -137.911578 -4.375111 -13.181653 16.736986 4.181750 -21.712474 2.135988 -33.939321 72.808557 -37.531300 5.721782 -12.925442 10.865913 -0.012600 -0.015051 -0.003292 -0.978097 -18.622134 11.675884 87.557187 83.871278 87.293334 -0.290672 -22.621462 -15.779750 0.015863 0.017864 0.000316
-15.137847 58.062302 13.713337 171.341400 -50.437735 -3.444345 4.822119 22.381209 3.867515 2.520621 12.837597 1.948111 3.231428 16.027985 2.539890 2.500884 12.819176 1.952123 0.935560 17.061525 1.969038 1.090173 -4.064246 3.329534 6.068641 3.740322 0.897745 2.541398 -18.696870 -13.685424 -93.162338 -50.413961 146.694959 7.569400 -4.057689 -28.152759 -9.682221 0.011248 -2.139132 -3.057788 -14.502487 15.367340 84.540186 -48.024105 -137.842255 -4.362454 -13.212836 16.656121 4.184294 -21.716518 2.123322 -33.922926 72.810053 -37.517153 5.719688 -12.928085 10.871049 -0.011750 -0.011134 -0.004287 -0.976676 -18.626532 11.672977 87.568687 83.858923 87.299218 -0.296598 -22.622467 -15.779668 0.010557 0.019945 0.002403
-15.139473 58.061552 13.712644 171.340924 -50.434615 -3.445060 4.813923 22.374494 3.862460 2.518024 12.833610 1.951050 3.226838 16.021917 2.540919 2.508766 12.829505 1.947392 0.919671 17.038870 1.962821 1.053807 -4.112413 3.298663 6.037821 3.709092 0.873673 2.474151 -18.652553 -13.631791 -93.162485 -50.454058 146.702872 7.556808 -4.008195 -28.093323 -9.687462 0.005780 -2.136699 -3.032029 -14.479786 15.370613 84.509140 -48.038508 -137.816830 -4.357819 -13.231211 16.615544 4.184464 -21.719873 2.118531 -33.904505 72.814717 -37.500306 5.729504 -12.934017 10.874732 -0.013340 -0.011291 -0.007077 -0.980672 -18.628962 11.675594 87.571154 83.856351 87.298724 -0.299844 -22.623840 -15.783965 0.015595 0.020098 0.006657
-15.140037 58.060689 13.712473 171.334054 -50.428700 -3.450773 4.813597 22.364151 3.866725 2.513652 12.828194 1.951671 3.224381 16.015509 2.541629 2.506737 12.824366 1.947957 0.912505 17.031613 1.949362 1.044869 -4.128982 3.280991 6.040312 3.718084 0.859685 2.425126 -18.627776 -13.605136 -93.162200 -50.466588 146.722755 7.545632 -3.997669 -28.064818 -9.690913 0.012424 -2.132656 -2.997209 -14.457979 15.362166 84.475264 -48.054955 -137.781965 -4.351979 -13.245813 16.572344 4.186249 -21.727372 2.130443 -33.916343 72.815034 -37.510355 5.737457 -12.938096 10.875810 -0.010494 -0.012692 -0.008182 -0.978743 -18.631669 11.684246 87.542541 83.852277 87.272319 -0.303632 -22.628671 -15.786869 0.021459 0.021702 0.009103
-15.144938 58.059964 13.711298 171.310257 -50.424257 -3.419462 4.812907 22.357947 3.844640 2.515937 12.821370 1.953083 3.219780 16.009969 2.541543 2.489367 12.800044 1.948289 0.917661 17.041142 1.934163 1.035145 -4.148855 3.262370 6.062409 3.754390 0.853173 2.397729 -18.616283 -13.592682 -93.200587 -50.500712 146.687157 7.578601 -3.850820 -27.977384 -9.683203 0.035646 -2.130890 -2.951100 -14.430419 15.352980 84.440414 -48.064513 -137.752577 -4.332946 -13.167456 16.464755 4.209943 -21.734397 2.113951 -33.937088 72.817645 -37.524203 5.736337 -12.923892 10.880581 -0.014551 -0.031864 -0.013659 -0.959017 -18.637147 11.667296 87.559379 83.852744 87.290957 -0.309746 -22.644559 -15.790120 0.021309 0.032134 0.013406
-15.143803 58.059649 13.711256 171.317675 -50.418726 -3.451060 4.808748 22.347563 3.865842 2.509965 12.818577 1.948986 3.209029 15.986579 2.542353 2.506530 12.820894 1.946330 0.905559 17.018153 1.924382 1.024173 -4.169009 3.241431 6.061044 3.747404 0.841519 2.368284 -18.591238 -13.569444 -93.237469 -50.531254 146.640503 7.594557 -3.736624 -27.868936 -9.695804 0.028199 -2.117838 -2.891485 -14.396510 15.341006 84.421978 -48.060548 -137.763251 -4.301723 -13.078408 16.382033 4.200289 -21.745334 2.141544 -33.965057 72.818234 -37.547059 5.726179 -12.941141 10.882210 -0.004545 -0.013981 -0.011978 -0.971669 -18.640263 11.691728 87.556598 83.855057 87.291172 -0.293498 -22.634748 -15.791174 0.010855 0.020931 0.006573
-15.148638 58.059108 13.710024 171.289658 -50.413722 -3.420624 4.813639 22.336956 3.850691 2.510225 12.815912 1.951099 3.210581 15.986562 2.541393 2.505941 12.819035 1.946767 0.893423 16.994969 1.913793 1.012573 -4.190123 3.219257 6.029418 3.723012 0.820705 2.332960 -18.535366 -13.529139 -93.264137 -50.547177 146.622598 7.618571 -3.629135 -27.761620 -9.707878 0.023013 -2.100428 -2.829669 -14.366396 15.315906 84.365254 -48.065560 -137.713223 -4.267464 -13.014119 16.267591 4.222952 -21.750226 2.131379 -33.968484 72.816744 -37.549274 5.728019 -12.926148 10.883005 -0.002563 -0.030938 -0.010608 -0.944296 -18.647077 11.679344 87.565632 83.852507 87.305222 -0.301438 -22.651060 -15.791446 0.020959 0.032344 0.010473
